<svg xmlns="http://www.w3.org/2000/svg" version="1.1" xmlns:xlink="http://www.w3.org/1999/xlink" xmlns:svgjs="http://svgjs.com/svgjs" width="1080" height="1080"><svg xmlns="http://www.w3.org/2000/svg" xmlns:xlink="http://www.w3.org/1999/xlink" version="1.1" xml:space="preserve" viewBox="0 0 1080 1080">
<desc>Created with Fabric.js 5.2.4</desc>
<defs>
</defs>
<g transform="matrix(1 0 0 1 540 540)" id="SvgjsG1001">
<rect style="stroke: none; stroke-width: 1; stroke-dasharray: none; stroke-linecap: butt; stroke-dashoffset: 0; stroke-linejoin: miter; stroke-miterlimit: 4; fill: rgb(255,255,255); fill-rule: nonzero; opacity: 1; visibility: hidden;" vector-effect="non-scaling-stroke" x="-540" y="-540" rx="0" ry="0" width="1080" height="1080"></rect>
</g>
<g transform="matrix(1 0 0 1 540 540)" id="SvgjsG1000">
</g>
<g transform="matrix(2 0 0 2 458.22 556.02)">
<g style="" vector-effect="non-scaling-stroke">
		<g transform="matrix(0.13 0 0 -0.13 0 0)">
<path style="stroke: none; stroke-width: 1; stroke-dasharray: none; stroke-linecap: butt; stroke-dashoffset: 0; stroke-linejoin: miter; stroke-miterlimit: 4; fill: rgb(0,0,0); fill-rule: nonzero; opacity: 1;" vector-effect="non-scaling-stroke" transform=" translate(-2633.86, -2219.5)" d="M 4155 4035 C 3547 3559 3455 3484 3430 3440 L 3405 3395 L 3400 2355 C 3397 1688 3391 1309 3385 1299 C 3377 1286 3158 1487 2170 2410 C 1289 3235 962 3534 953 3527 C 943 3520 940 3182 940 1898 L 940 279 L 962 291 C 988 305 1344 564 1684 815 C 1855 942 1916 993 1926 1017 C 1944 1060 1946 1610 1928 1643 C 1922 1655 1854 1732 1776 1814 L 1635 1963 L 1628 1914 C 1625 1887 1621 1725 1621 1554 C 1620 1366 1616 1232 1610 1214 C 1602 1194 1554 1151 1450 1073 C 1368 1011 1296 960 1291 960 C 1277 960 1271 1031 1259 1355 C 1243 1797 1260 2670 1286 2712 C 1289 2716 1501 2523 1758 2282 C 2980 1138 3694 475 3704 475 C 3712 475 3716 864 3720 1850 C 3724 3051 3727 3228 3740 3252 C 3756 3280 3927 3423 3968 3443 C 3986 3451 3996 3450 4016 3434 L 4041 3415 L 4040 2011 C 4040 639 4040 608 4059 621 C 4069 629 4117 663 4166 696 C 4266 765 4293 791 4311 835 C 4330 882 4331 1068 4323 2663 L 4315 4160 L 4155 4035 z" stroke-linecap="round"></path>
</g>
		<g transform="matrix(0.13 0 0 -0.13 -53.45 -102.48)">
<path style="stroke: none; stroke-width: 1; stroke-dasharray: none; stroke-linecap: butt; stroke-dashoffset: 0; stroke-linejoin: miter; stroke-miterlimit: 4; fill: rgb(0,0,0); fill-rule: nonzero; opacity: 1;" vector-effect="non-scaling-stroke" transform=" translate(-2232.97, -2988.07)" d="M 1459 3871 C 1312 3770 1310 3767 1335 3726 C 1346 3708 1535 3523 1755 3315 C 1975 3106 2299 2798 2475 2630 C 3089 2045 3120 2016 3132 2028 C 3139 2035 3143 2113 3143 2254 C 3143 2463 3142 2471 3119 2514 C 3102 2546 2886 2757 2363 3255 C 1745 3842 1626 3950 1602 3950 C 1583 3950 1536 3924 1459 3871 z" stroke-linecap="round"></path>
</g>
</g>
</g>
</svg><style>@media (prefers-color-scheme: light) { :root { filter: none; } }
@media (prefers-color-scheme: dark) { :root { filter: invert(100%); } }
</style></svg>